<?xml version="1.0" encoding="UTF-8"?>
<!-- Created with Inkscape (http://www.inkscape.org/) -->
<svg width="1128" height="120" version="1.1" viewBox="0 0 1128 120" xmlns="http://www.w3.org/2000/svg" xmlns:xlink="http://www.w3.org/1999/xlink">
 <defs>
  <linearGradient id="linearGradient1865" x1="-2275.5" x2="-2071.7" y1="584.37" y2="584.37" gradientTransform="translate(2821.5,-436.99)" gradientUnits="userSpaceOnUse">
   <stop stop-color="#e0138c" offset="0"/>
   <stop stop-color="#8857c3" offset=".65"/>
   <stop stop-color="#44b5ef" offset="1"/>
  </linearGradient>
  <filter id="filter8201" x="-.37617" y="-.32688" width="1.7524" height="1.6538" color-interpolation-filters="sRGB">
   <feGaussianBlur stdDeviation="25.100128"/>
  </filter>
  <linearGradient id="linearGradient1403" x1="-2271.7" x2="-2073.6" y1="318.42" y2="318.42" gradientTransform="translate(2821.5,-171.03)" gradientUnits="userSpaceOnUse">
   <stop stop-color="#ec8bc5" offset="0"/>
   <stop stop-color="#ad91d8" offset=".65"/>
   <stop stop-color="#82cdf4" offset="1"/>
  </linearGradient>
  <filter id="filter8197" x="-.12082" y="-.10499" width="1.2416" height="1.21" color-interpolation-filters="sRGB">
   <feGaussianBlur stdDeviation="6.2750313"/>
  </filter>
  <linearGradient id="linearGradient5761" x1="-2267.9" x2="-2075.5" y1="52.474" y2="52.474" gradientTransform="translate(2821.5,94.938)" gradientUnits="userSpaceOnUse">
   <stop stop-color="#f5c5e2" offset="0"/>
   <stop stop-color="#d7c7eb" offset=".65"/>
   <stop stop-color="#c0e6f9" offset="1"/>
  </linearGradient>
  <filter id="filter8193" x="-.04694" y="-.040789" width="1.0939" height="1.0816" color-interpolation-filters="sRGB">
   <feGaussianBlur stdDeviation="1.5687656"/>
  </filter>
  <filter id="filter16588-4" x="-.028533" y="-.033739" width="1.0571" height="1.0675" color-interpolation-filters="sRGB">
   <feGaussianBlur stdDeviation="2.8709522"/>
  </filter>
  <filter id="filter16584-1" x="-.01286" y="-.016739" width="1.0258" height="1.0335" color-interpolation-filters="sRGB">
   <feGaussianBlur stdDeviation="1.27598"/>
  </filter>
  <filter id="filter16580-4" x="-.0036616" y="-.0050961" width="1.0073" height="1.0102" color-interpolation-filters="sRGB">
   <feGaussianBlur stdDeviation="0.31899501"/>
  </filter>
  <linearGradient id="linearGradient16834-6" x1="-18.318" x2="122.88" y1="-23.978" y2="123.93" gradientTransform="matrix(.83363 0 0 .83363 -1204.2 -292.2)" gradientUnits="userSpaceOnUse">
   <stop stop-color="#e0138c" stop-opacity=".9" offset="0"/>
   <stop stop-color="#e0138c" stop-opacity="0" offset="1"/>
  </linearGradient>
  <filter id="filter16588-4-0" x="-.028533" y="-.033739" width="1.0571" height="1.0675" color-interpolation-filters="sRGB">
   <feGaussianBlur stdDeviation="2.8709522"/>
  </filter>
  <filter id="filter16584-1-3" x="-.01286" y="-.016739" width="1.0258" height="1.0335" color-interpolation-filters="sRGB">
   <feGaussianBlur stdDeviation="1.27598"/>
  </filter>
  <filter id="filter16580-4-9" x="-.0036616" y="-.0050961" width="1.0073" height="1.0102" color-interpolation-filters="sRGB">
   <feGaussianBlur stdDeviation="0.31899501"/>
  </filter>
  <linearGradient id="linearGradient3305" x1="-18.318" x2="122.88" y1="-23.978" y2="123.93" gradientTransform="matrix(.57067 0 0 .57067 -1.6858 -1.8521)" gradientUnits="userSpaceOnUse" xlink:href="#linearGradient16834-6"/>
  <linearGradient id="linearGradient5001" x1="-18.318" x2="122.88" y1="-23.978" y2="123.93" gradientTransform="matrix(.55035 0 0 .55035 -1131 -116.08)" gradientUnits="userSpaceOnUse" xlink:href="#linearGradient16834-6"/>
  <filter id="filter8201-3" x="-.37617" y="-.32688" width="1.7524" height="1.6538" color-interpolation-filters="sRGB">
   <feGaussianBlur stdDeviation="25.100128"/>
  </filter>
  <filter id="filter8197-3" x="-.12082" y="-.10499" width="1.2416" height="1.21" color-interpolation-filters="sRGB">
   <feGaussianBlur stdDeviation="6.2750313"/>
  </filter>
  <filter id="filter8193-1" x="-.04694" y="-.040789" width="1.0939" height="1.0816" color-interpolation-filters="sRGB">
   <feGaussianBlur stdDeviation="1.5687656"/>
  </filter>
  <filter id="filter8201-0" x="-.37617" y="-.32688" width="1.7524" height="1.6538" color-interpolation-filters="sRGB">
   <feGaussianBlur stdDeviation="25.100128"/>
  </filter>
  <filter id="filter8197-0" x="-.12082" y="-.10499" width="1.2416" height="1.21" color-interpolation-filters="sRGB">
   <feGaussianBlur stdDeviation="6.2750313"/>
  </filter>
  <filter id="filter8193-5" x="-.04694" y="-.040789" width="1.0939" height="1.0816" color-interpolation-filters="sRGB">
   <feGaussianBlur stdDeviation="1.5687656"/>
  </filter>
  <filter id="filter8201-0-7" x="-.37617" y="-.32688" width="1.7524" height="1.6538" color-interpolation-filters="sRGB">
   <feGaussianBlur stdDeviation="25.100128"/>
  </filter>
  <filter id="filter8197-0-2" x="-.12082" y="-.10499" width="1.2416" height="1.21" color-interpolation-filters="sRGB">
   <feGaussianBlur stdDeviation="6.2750313"/>
  </filter>
  <filter id="filter8193-5-3" x="-.04694" y="-.040789" width="1.0939" height="1.0816" color-interpolation-filters="sRGB">
   <feGaussianBlur stdDeviation="1.5687656"/>
  </filter>
 </defs>
 <g transform="matrix(-.47222 -.57162 -.57162 .47222 743.84 377.63)" fill="none" stroke-linecap="round" stroke-linejoin="round">
  <path d="m744.1 254.87-186.72-106.36h1e-3v-1e-3l185.48-108.52v1e-3z" filter="url(#filter8201)" stroke="url(#linearGradient1865)" stroke-width="20"/>
  <path d="m744.1 254.87-186.72-106.36 1e-3 -1e-3c0.24-0.141 185.24-108.38 185.48-108.52h1e-3v1e-3c1e-3 0.21 1.24 214.88 1.24 214.88" filter="url(#filter8197)" stroke="url(#linearGradient1403)" stroke-width="15px"/>
  <path d="m744.1 254.87-186.72-106.36 1e-3 -1e-3c0.481-0.281 185.36-108.45 185.48-108.52l1e-3 1e-3v2e-3c2e-3 0.418 1.24 214.88 1.24 214.88" filter="url(#filter8193)" stroke="url(#linearGradient5761)" stroke-width="10"/>
  <path d="m744.09 254.87-186.72-106.37 185.48-108.51v0.0017z" stroke="#fff" stroke-width="5"/>
 </g>
 <g transform="matrix(.15372 .39283 .39283 -.15372 733.2 -147.19)" fill="none" stroke-linecap="round" stroke-linejoin="round">
  <path d="m744.1 254.87-186.72-106.36h1e-3v-1e-3l185.48-108.52v1e-3z" filter="url(#filter8201-3)" stroke="url(#linearGradient1865)" stroke-width="20"/>
  <path d="m744.1 254.87-186.72-106.36 1e-3 -1e-3c0.24-0.141 185.24-108.38 185.48-108.52h1e-3v1e-3c1e-3 0.21 1.24 214.88 1.24 214.88" filter="url(#filter8197-3)" stroke="url(#linearGradient1403)" stroke-width="15px"/>
  <path d="m744.1 254.87-186.72-106.36 1e-3 -1e-3c0.481-0.281 185.36-108.45 185.48-108.52l1e-3 1e-3v2e-3c2e-3 0.418 1.24 214.88 1.24 214.88" filter="url(#filter8193-1)" stroke="url(#linearGradient5761)" stroke-width="10"/>
  <path d="m744.09 254.87-186.72-106.37 185.48-108.51v0.0017z" stroke="#fff" stroke-width="5"/>
 </g>
 <rect transform="rotate(180.42)" x="-1131" y="-116.08" width="137.59" height="137.59" fill="url(#linearGradient5001)" fill-rule="evenodd" stroke-width=".55035" style="paint-order:stroke markers fill"/>
 <g transform="matrix(-.53454 .056513 -.055896 -.52868 1401.4 396.8)" fill="none" opacity=".9">
  <g transform="translate(-60.315,568.73)" filter="url(#filter16588-4)">
   <g stroke-linecap="round" stroke-linejoin="round" stroke-width="2">
    <path d="m526.11 123.57 72.44-42.081" stroke="#44b5ef"/>
    <path d="m631.94 124 62.72-36.648" stroke="#44b5ef"/>
    <g stroke="#e0138c">
     <path d="m725.57 68.668 30.9-18.012"/>
     <path d="m631.69 97.527c1.4776-0.45357 131.8-77.176 131.8-77.176"/>
     <path d="m668.4 66.503 79.535-46.583"/>
    </g>
    <path d="m646.96 69.1 29.248-16.556" stroke="#8857c3"/>
    <path d="m615.67 48.139 12.907-8.1065" stroke="#44b5ef"/>
    <path d="m642.38 31.44 38.52-23.641" stroke="#8857c3"/>
    <path d="m487.46 241.66 49.556-28.969" stroke="#44b5ef"/>
    <path d="m503.38 187.31 25.98-14.577" stroke="#e0138c"/>
    <path d="m487.21 156.79 62.754-36.271" stroke="#fff"/>
    <path d="m488.78 39.609 48.257-27.564" stroke="#8857c3"/>
    <path d="m486.96 85.264 72.51-41.179" stroke="#e0138c"/>
    <path d="m553.79 34.412 26.08-14.492" stroke="#44b5ef"/>
    <path d="m543.85 64.675 44.401-25.066" stroke="#8857c3"/>
    <path d="m507.79 85.699 21.814-13.061" stroke="#fff"/>
    <path d="m488.53 133.32 26.026-14.614" stroke="#8857c3"/>
    <path d="m592.52 187.74 14.208-7.7243" stroke="#e0138c"/>
    <path d="m611.49 161.84 29.65-17.876" stroke="#e0138c"/>
    <path d="m487.21 225.34 121.18-69.354" stroke="#fff"/>
    <path d="m487.86 178.67 81.154-46.896" stroke="#e0138c"/>
    <path d="m641.4 152.91 76.113-42.706" stroke="#8857c3"/>
   </g>
   <g stroke="#44b5ef" stroke-width="2px">
    <path d="m487.46 241.66 49.556-28.969"/>
    <path d="m487.46 241.66 49.556-28.969"/>
    <path d="m487.46 241.66 49.556-28.969"/>
    <path d="m487.46 241.66 49.556-28.969"/>
   </g>
  </g>
  <g transform="translate(-60.315,303.29)" filter="url(#filter16584-1)" stroke-width="2px" style="mix-blend-mode:normal">
   <path d="m487.46 507.1 49.556-28.969" stroke="#82cdf4"/>
   <path d="m487.2 490.77 121.18-69.354" stroke="#fff"/>
   <path d="m592.52 453.18 14.208-7.724" stroke="#ec8bc5"/>
   <path d="m641.4 418.34 76.113-42.706" stroke="#af8fd7"/>
   <g stroke="#ec8bc5">
    <path d="m725.57 334.11 30.899-18.012"/>
    <path d="m668.4 331.94 79.535-46.583"/>
    <path d="m631.68 362.96c1.478-0.453 131.8-77.176 131.8-77.176"/>
   </g>
   <path d="m631.94 389.44 62.72-36.648" stroke="#82cdf4"/>
   <g stroke="#ec8bc5">
    <path d="m592.52 453.18 14.208-7.724"/>
    <path d="m611.49 427.28 29.649-17.876"/>
    <path d="m503.38 452.74 25.98-14.577"/>
    <path d="m487.86 444.11 81.154-46.896"/>
   </g>
   <path d="m487.2 422.23 62.754-36.271" stroke="#fff"/>
   <path d="m526.11 389.01 72.441-42.081" stroke="#82cdf4"/>
   <path d="m488.53 398.75 26.025-14.614" stroke="#af8fd7"/>
   <path d="m488.78 305.05 48.257-27.565" stroke="#af8fd7"/>
   <path d="m553.79 299.85 26.079-14.492" stroke="#82cdf4"/>
   <path d="m615.67 313.58 12.907-8.107" stroke="#82cdf4"/>
   <path d="m642.38 296.88 38.52-23.641" stroke="#af8fd7"/>
   <path d="m543.85 330.11 44.401-25.066" stroke="#af8fd7"/>
   <path d="m486.96 350.7 72.511-41.179" stroke="#ec8bc5"/>
   <path d="m486.96 350.7 72.511-41.179" stroke="#ec8bc5"/>
   <path d="m507.79 351.14 21.814-13.061" stroke="#fff"/>
   <path d="m488.53 398.75 26.025-14.614" stroke="#af8fd7"/>
   <path d="m646.96 334.54 29.248-16.556" stroke="#af8fd7"/>
  </g>
  <g transform="translate(-60.315,37.85)" filter="url(#filter16580-4)">
   <path d="m487.46 772.53 49.556-28.969" stroke="#c0e6f9"/>
   <path d="m487.2 756.21 121.18-69.354" stroke="#fff"/>
   <path d="m592.52 718.62 14.208-7.724" stroke="#f5c5e2"/>
   <path d="m641.4 683.78 76.113-42.706" stroke="#d7c7eb"/>
   <g stroke="#f5c5e2">
    <path d="m725.57 599.54 30.899-18.012"/>
    <path d="m668.4 597.38 79.535-46.583"/>
    <path d="m631.68 628.4c1.478-0.453 131.8-77.176 131.8-77.176"/>
   </g>
   <path d="m631.94 654.88 62.72-36.648" stroke="#c0e6f9"/>
   <g stroke="#f5c5e2">
    <path d="m592.52 718.62 14.208-7.724"/>
    <path d="m611.49 692.72 29.649-17.876"/>
    <path d="m503.38 718.18 25.98-14.577"/>
    <path d="m487.86 709.55 81.154-46.896"/>
   </g>
   <path d="m487.2 687.67 62.754-36.271" stroke="#fff"/>
   <path d="m526.11 654.44 72.441-42.081" stroke="#c0e6f9"/>
   <path d="m488.53 664.19 26.025-14.614" stroke="#d7c7eb"/>
   <path d="m488.78 570.48 48.257-27.565" stroke="#d7c7eb"/>
   <path d="m553.79 565.29 26.079-14.492" stroke="#c0e6f9"/>
   <path d="m615.67 579.02 12.907-8.107" stroke="#c0e6f9"/>
   <path d="m642.38 562.32 38.52-23.641" stroke="#d7c7eb"/>
   <path d="m543.85 595.55 44.401-25.066" stroke="#d7c7eb"/>
   <path d="m486.96 616.14 72.511-41.179" stroke="#f5c5e2"/>
   <path d="m486.96 616.14 72.511-41.179" stroke="#f5c5e2"/>
   <path d="m507.79 616.58 21.814-13.061" stroke="#fff"/>
   <path d="m488.53 664.19 26.025-14.614" stroke="#d7c7eb"/>
   <path d="m646.96 599.98 29.248-16.556" stroke="#d7c7eb"/>
  </g>
  <g transform="translate(-60.316,-227.59)" stroke="#fff" stroke-linecap="round" stroke-linejoin="round">
   <path d="m526.11 919.88 72.44-42.081"/>
   <path d="m631.94 920.31 62.72-36.648"/>
   <path d="m725.57 864.98 30.9-18.012"/>
   <path d="m631.69 893.84c1.4776-0.45357 131.8-77.176 131.8-77.176"/>
   <path d="m668.4 862.82 79.535-46.583"/>
   <path d="m642.38 827.75 38.52-23.641"/>
   <path d="m646.96 865.41 29.248-16.556"/>
   <path d="m615.67 844.45 12.907-8.1065"/>
   <path d="m487.46 1038 49.556-28.969"/>
   <path d="m503.38 983.62 25.98-14.577"/>
   <path d="m487.21 953.11 62.754-36.271"/>
   <path d="m488.78 835.92 48.257-27.564"/>
   <path d="m486.96 881.58 72.51-41.178"/>
   <path d="m553.79 830.73 26.08-14.492"/>
   <path d="m543.85 860.99 44.401-25.066"/>
   <path d="m507.79 882.01 21.814-13.061"/>
   <path d="m488.53 929.63 26.026-14.614"/>
   <path d="m592.52 984.06 14.208-7.7243"/>
   <path d="m611.49 958.16 29.65-17.876"/>
   <path d="m487.21 1021.6 121.18-69.354"/>
   <path d="m487.86 974.99 81.154-46.896"/>
   <path d="m641.4 949.22 76.113-42.706"/>
  </g>
 </g>
 <rect transform="rotate(-.50992)" x="-1.6858" y="-1.8521" width="142.67" height="142.67" fill="url(#linearGradient3305)" fill-rule="evenodd" stroke-width=".57067" style="paint-order:stroke markers fill"/>
 <g fill="none">
  <g transform="matrix(.55325 -.067632 .066893 .54718 -287.58 -279.61)" opacity=".9">
   <g transform="translate(-60.315,568.73)" filter="url(#filter16588-4-0)">
    <g stroke-linecap="round" stroke-linejoin="round" stroke-width="2">
     <path d="m526.11 123.57 72.44-42.081" stroke="#44b5ef"/>
     <path d="m631.94 124 62.72-36.648" stroke="#44b5ef"/>
     <g stroke="#e0138c">
      <path d="m725.57 68.668 30.9-18.012"/>
      <path d="m631.69 97.527c1.4776-0.45357 131.8-77.176 131.8-77.176"/>
      <path d="m668.4 66.503 79.535-46.583"/>
     </g>
     <path d="m646.96 69.1 29.248-16.556" stroke="#8857c3"/>
     <path d="m615.67 48.139 12.907-8.1065" stroke="#44b5ef"/>
     <path d="m642.38 31.44 38.52-23.641" stroke="#8857c3"/>
     <path d="m487.46 241.66 49.556-28.969" stroke="#44b5ef"/>
     <path d="m503.38 187.31 25.98-14.577" stroke="#e0138c"/>
     <path d="m487.21 156.79 62.754-36.271" stroke="#fff"/>
     <path d="m488.78 39.609 48.257-27.564" stroke="#8857c3"/>
     <path d="m486.96 85.264 72.51-41.179" stroke="#e0138c"/>
     <path d="m553.79 34.412 26.08-14.492" stroke="#44b5ef"/>
     <path d="m543.85 64.675 44.401-25.066" stroke="#8857c3"/>
     <path d="m507.79 85.699 21.814-13.061" stroke="#fff"/>
     <path d="m488.53 133.32 26.026-14.614" stroke="#8857c3"/>
     <path d="m592.52 187.74 14.208-7.7243" stroke="#e0138c"/>
     <path d="m611.49 161.84 29.65-17.876" stroke="#e0138c"/>
     <path d="m487.21 225.34 121.18-69.354" stroke="#fff"/>
     <path d="m487.86 178.67 81.154-46.896" stroke="#e0138c"/>
     <path d="m641.4 152.91 76.113-42.706" stroke="#8857c3"/>
    </g>
    <g stroke="#44b5ef" stroke-width="2px">
     <path d="m487.46 241.66 49.556-28.969"/>
     <path d="m487.46 241.66 49.556-28.969"/>
     <path d="m487.46 241.66 49.556-28.969"/>
     <path d="m487.46 241.66 49.556-28.969"/>
    </g>
   </g>
   <g transform="translate(-60.315,303.29)" filter="url(#filter16584-1-3)" stroke-width="2px" style="mix-blend-mode:normal">
    <path d="m487.46 507.1 49.556-28.969" stroke="#82cdf4"/>
    <path d="m487.2 490.77 121.18-69.354" stroke="#fff"/>
    <path d="m592.52 453.18 14.208-7.724" stroke="#ec8bc5"/>
    <path d="m641.4 418.34 76.113-42.706" stroke="#af8fd7"/>
    <g stroke="#ec8bc5">
     <path d="m725.57 334.11 30.899-18.012"/>
     <path d="m668.4 331.94 79.535-46.583"/>
     <path d="m631.68 362.96c1.478-0.453 131.8-77.176 131.8-77.176"/>
    </g>
    <path d="m631.94 389.44 62.72-36.648" stroke="#82cdf4"/>
    <g stroke="#ec8bc5">
     <path d="m592.52 453.18 14.208-7.724"/>
     <path d="m611.49 427.28 29.649-17.876"/>
     <path d="m503.38 452.74 25.98-14.577"/>
     <path d="m487.86 444.11 81.154-46.896"/>
    </g>
    <path d="m487.2 422.23 62.754-36.271" stroke="#fff"/>
    <path d="m526.11 389.01 72.441-42.081" stroke="#82cdf4"/>
    <path d="m488.53 398.75 26.025-14.614" stroke="#af8fd7"/>
    <path d="m488.78 305.05 48.257-27.565" stroke="#af8fd7"/>
    <path d="m553.79 299.85 26.079-14.492" stroke="#82cdf4"/>
    <path d="m615.67 313.58 12.907-8.107" stroke="#82cdf4"/>
    <path d="m642.38 296.88 38.52-23.641" stroke="#af8fd7"/>
    <path d="m543.85 330.11 44.401-25.066" stroke="#af8fd7"/>
    <path d="m486.96 350.7 72.511-41.179" stroke="#ec8bc5"/>
    <path d="m486.96 350.7 72.511-41.179" stroke="#ec8bc5"/>
    <path d="m507.79 351.14 21.814-13.061" stroke="#fff"/>
    <path d="m488.53 398.75 26.025-14.614" stroke="#af8fd7"/>
    <path d="m646.96 334.54 29.248-16.556" stroke="#af8fd7"/>
   </g>
   <g transform="translate(-60.315,37.85)" filter="url(#filter16580-4-9)">
    <path d="m487.46 772.53 49.556-28.969" stroke="#c0e6f9"/>
    <path d="m487.2 756.21 121.18-69.354" stroke="#fff"/>
    <path d="m592.52 718.62 14.208-7.724" stroke="#f5c5e2"/>
    <path d="m641.4 683.78 76.113-42.706" stroke="#d7c7eb"/>
    <g stroke="#f5c5e2">
     <path d="m725.57 599.54 30.899-18.012"/>
     <path d="m668.4 597.38 79.535-46.583"/>
     <path d="m631.68 628.4c1.478-0.453 131.8-77.176 131.8-77.176"/>
    </g>
    <path d="m631.94 654.88 62.72-36.648" stroke="#c0e6f9"/>
    <g stroke="#f5c5e2">
     <path d="m592.52 718.62 14.208-7.724"/>
     <path d="m611.49 692.72 29.649-17.876"/>
     <path d="m503.38 718.18 25.98-14.577"/>
     <path d="m487.86 709.55 81.154-46.896"/>
    </g>
    <path d="m487.2 687.67 62.754-36.271" stroke="#fff"/>
    <path d="m526.11 654.44 72.441-42.081" stroke="#c0e6f9"/>
    <path d="m488.53 664.19 26.025-14.614" stroke="#d7c7eb"/>
    <path d="m488.78 570.48 48.257-27.565" stroke="#d7c7eb"/>
    <path d="m553.79 565.29 26.079-14.492" stroke="#c0e6f9"/>
    <path d="m615.67 579.02 12.907-8.107" stroke="#c0e6f9"/>
    <path d="m642.38 562.32 38.52-23.641" stroke="#d7c7eb"/>
    <path d="m543.85 595.55 44.401-25.066" stroke="#d7c7eb"/>
    <path d="m486.96 616.14 72.511-41.179" stroke="#f5c5e2"/>
    <path d="m486.96 616.14 72.511-41.179" stroke="#f5c5e2"/>
    <path d="m507.79 616.58 21.814-13.061" stroke="#fff"/>
    <path d="m488.53 664.19 26.025-14.614" stroke="#d7c7eb"/>
    <path d="m646.96 599.98 29.248-16.556" stroke="#d7c7eb"/>
   </g>
   <g transform="translate(-60.316,-227.59)" stroke="#fff" stroke-linecap="round" stroke-linejoin="round">
    <path d="m526.11 919.88 72.44-42.081"/>
    <path d="m631.94 920.31 62.72-36.648"/>
    <path d="m725.57 864.98 30.9-18.012"/>
    <path d="m631.69 893.84c1.4776-0.45357 131.8-77.176 131.8-77.176"/>
    <path d="m668.4 862.82 79.535-46.583"/>
    <path d="m642.38 827.75 38.52-23.641"/>
    <path d="m646.96 865.41 29.248-16.556"/>
    <path d="m615.67 844.45 12.907-8.1065"/>
    <path d="m487.46 1038 49.556-28.969"/>
    <path d="m503.38 983.62 25.98-14.577"/>
    <path d="m487.21 953.11 62.754-36.271"/>
    <path d="m488.78 835.92 48.257-27.564"/>
    <path d="m486.96 881.58 72.51-41.178"/>
    <path d="m553.79 830.73 26.08-14.492"/>
    <path d="m543.85 860.99 44.401-25.066"/>
    <path d="m507.79 882.01 21.814-13.061"/>
    <path d="m488.53 929.63 26.026-14.614"/>
    <path d="m592.52 984.06 14.208-7.7243"/>
    <path d="m611.49 958.16 29.65-17.876"/>
    <path d="m487.21 1021.6 121.18-69.354"/>
    <path d="m487.86 974.99 81.154-46.896"/>
    <path d="m641.4 949.22 76.113-42.706"/>
   </g>
  </g>
  <g transform="matrix(-.45831 .023048 .023048 .45831 470.85 24.983)" stroke-linecap="round" stroke-linejoin="round">
   <path d="m744.1 254.87-186.72-106.36h1e-3v-1e-3l185.48-108.52v1e-3z" filter="url(#filter8201-0)" stroke="url(#linearGradient1865)" stroke-width="20"/>
   <path d="m744.1 254.87-186.72-106.36 1e-3 -1e-3c0.24-0.141 185.24-108.38 185.48-108.52h1e-3v1e-3c1e-3 0.21 1.24 214.88 1.24 214.88" filter="url(#filter8197-0)" stroke="url(#linearGradient1403)" stroke-width="15px"/>
   <path d="m744.1 254.87-186.72-106.36 1e-3 -1e-3c0.481-0.281 185.36-108.45 185.48-108.52l1e-3 1e-3v2e-3c2e-3 0.418 1.24 214.88 1.24 214.88" filter="url(#filter8193-5)" stroke="url(#linearGradient5761)" stroke-width="10"/>
   <path d="m744.09 254.87-186.72-106.37 185.48-108.51v0.0017z" stroke="#fff" stroke-width="5"/>
  </g>
  <g transform="matrix(.059205 -.22996 -.22996 -.059205 968.65 185.32)" stroke-linecap="round" stroke-linejoin="round">
   <path d="m744.1 254.87-186.72-106.36h1e-3v-1e-3l185.48-108.52v1e-3z" filter="url(#filter8201-0-7)" stroke="url(#linearGradient1865)" stroke-width="20"/>
   <path d="m744.1 254.87-186.72-106.36 1e-3 -1e-3c0.24-0.141 185.24-108.38 185.48-108.52h1e-3v1e-3c1e-3 0.21 1.24 214.88 1.24 214.88" filter="url(#filter8197-0-2)" stroke="url(#linearGradient1403)" stroke-width="15px"/>
   <path d="m744.1 254.87-186.72-106.36 1e-3 -1e-3c0.481-0.281 185.36-108.45 185.48-108.52l1e-3 1e-3v2e-3c2e-3 0.418 1.24 214.88 1.24 214.88" filter="url(#filter8193-5-3)" stroke="url(#linearGradient5761)" stroke-width="10"/>
   <path d="m744.09 254.87-186.72-106.37 185.48-108.51v0.0017z" stroke="#fff" stroke-width="5"/>
  </g>
 </g>
 <g transform="translate(0 -2.7137)" fill="#e0138c" font-family="Calibri" stroke-linecap="round" stroke-linejoin="round" stroke-width="3">
  <g transform="translate(145.32 -115.47)" fill="#333" fill-opacity=".50196" style="paint-order:fill markers stroke" aria-label="Johny W. Alves Desenvolvedor Web">
   <path d="m219.47 142.55h9.2188v29q0 5.6875-1 8.75-1.3438 4-4.875 6.4375-3.5312 2.4062-9.3125 2.4062-6.7812 0-10.438-3.7812-3.6562-3.8125-3.6875-11.156l8.7188-1q0.15625 3.9375 1.1562 5.5625 1.5 2.4688 4.5625 2.4688 3.0938 0 4.375-1.75 1.2812-1.7812 1.2812-7.3438z"/>
   <path d="m236.94 171.3q0-4.375 2.1562-8.4688t6.0938-6.25q3.9688-2.1562 8.8438-2.1562 7.5312 0 12.344 4.9062 4.8125 4.875 4.8125 12.344 0 7.5312-4.875 12.5-4.8438 4.9375-12.219 4.9375-4.5625 0-8.7188-2.0625-4.125-2.0625-6.2812-6.0312-2.1562-4-2.1562-9.7188zm9 0.46875q0 4.9375 2.3438 7.5625t5.7812 2.625 5.75-2.625q2.3438-2.625 2.3438-7.625 0-4.875-2.3438-7.5-2.3125-2.625-5.75-2.625t-5.7812 2.625-2.3438 7.5625z"/>
   <path d="m287.31 142.55v16.844q4.25-4.9688 10.156-4.9688 3.0312 0 5.4688 1.125t3.6562 2.875q1.25 1.75 1.6875 3.875 0.46875 2.125 0.46875 6.5938v19.469h-8.7812v-17.531q0-5.2188-0.5-6.625t-1.7812-2.2188q-1.25-0.84375-3.1562-0.84375-2.1875 0-3.9062 1.0625t-2.5312 3.2188q-0.78125 2.125-0.78125 6.3125v16.625h-8.7812v-45.812z"/>
   <path d="m348.34 188.36h-8.7812v-16.938q0-5.375-0.5625-6.9375-0.5625-1.5938-1.8438-2.4688-1.25-0.875-3.0312-0.875-2.2812 0-4.0938 1.25t-2.5 3.3125q-0.65625 2.0625-0.65625 7.625v15.031h-8.7812v-33.188h8.1562v4.875q4.3438-5.625 10.938-5.625 2.9062 0 5.3125 1.0625 2.4062 1.0312 3.625 2.6562 1.25 1.625 1.7188 3.6875 0.5 2.0625 0.5 5.9062z"/>
   <path d="m353.59 155.17h9.3438l7.9375 23.562 7.75-23.562h9.0938l-11.719 31.938-2.0938 5.7812q-1.1562 2.9062-2.2188 4.4375-1.0312 1.5312-2.4062 2.4688-1.3438 0.96875-3.3438 1.5-1.9688 0.53125-4.4688 0.53125-2.5312 0-4.9688-0.53125l-0.78125-6.875q2.0625 0.40625 3.7188 0.40625 3.0625 0 4.5312-1.8125 1.4688-1.7812 2.25-4.5625z"/>
   <path d="m418.69 188.36-10.938-45.812h9.4688l6.9062 31.469 8.375-31.469h11l8.0312 32 7.0312-32h9.3125l-11.125 45.812h-9.8125l-9.125-34.25-9.0938 34.25z"/>
   <path d="m469.5 188.36v-8.7812h8.7812v8.7812z"/>
   <path d="m545.06 188.36h-10.062l-4-10.406h-18.312l-3.7812 10.406h-9.8125l17.844-45.812h9.7812zm-17.031-18.125-6.3125-17-6.1875 17z"/>
   <path d="m550.4 188.36v-45.812h8.7812v45.812z"/>
   <path d="m577.81 188.36-13.375-33.188h9.2188l6.25 16.938 1.8125 5.6562q0.71875-2.1562 0.90625-2.8438 0.4375-1.4062 0.9375-2.8125l6.3125-16.938h9.0312l-13.188 33.188z"/>
   <path d="m624 177.8 8.75 1.4688q-1.6875 4.8125-5.3438 7.3438-3.625 2.5-9.0938 2.5-8.6562 0-12.812-5.6562-3.2812-4.5312-3.2812-11.438 0-8.25 4.3125-12.906 4.3125-4.6875 10.906-4.6875 7.4062 0 11.688 4.9062 4.2812 4.875 4.0938 14.969h-22q0.0937 3.9062 2.125 6.0938 2.0312 2.1562 5.0625 2.1562 2.0625 0 3.4688-1.125t2.125-3.625zm0.5-8.875q-0.0937-3.8125-1.9688-5.7812-1.875-2-4.5625-2-2.875 0-4.75 2.0938t-1.8438 5.6875z"/>
   <path d="m637.78 178.89 8.8125-1.3438q0.5625 2.5625 2.2812 3.9062 1.7188 1.3125 4.8125 1.3125 3.4062 0 5.125-1.25 1.1562-0.875 1.1562-2.3438 0-1-0.625-1.6562-0.65625-0.625-2.9375-1.1562-10.625-2.3438-13.469-4.2812-3.9375-2.6875-3.9375-7.4688 0-4.3125 3.4062-7.25t10.562-2.9375q6.8125 0 10.125 2.2188t4.5625 6.5625l-8.2812 1.5312q-0.53125-1.9375-2.0312-2.9688-1.4688-1.0312-4.2188-1.0312-3.4688 0-4.9688 0.96875-1 0.6875-1 1.7812 0 0.9375 0.875 1.5938 1.1875 0.875 8.1875 2.4688 7.0312 1.5938 9.8125 3.9062 2.75 2.3438 2.75 6.5312 0 4.5625-3.8125 7.8438t-11.281 3.2812q-6.7812 0-10.75-2.75-3.9375-2.75-5.1562-7.4688z"/>
   <path d="m437.15 201.18h6.3398q2.1445 0 3.2695 0.32813 1.5117 0.44531 2.5898 1.582 1.0781 1.1367 1.6406 2.7891 0.5625 1.6406 0.5625 4.0547 0 2.1211-0.52734 3.6562-0.64454 1.875-1.8398 3.0352-0.90234 0.87891-2.4375 1.3711-1.1484 0.36328-3.0703 0.36328h-6.5273zm3.4688 2.9062v11.379h2.5898q1.4531 0 2.0977-0.16406 0.84375-0.21094 1.3945-0.71485 0.5625-0.5039 0.91406-1.6523 0.35156-1.1602 0.35156-3.1523 0-1.9922-0.35156-3.0586-0.35156-1.0664-0.98438-1.6641-0.63281-0.59766-1.6055-0.80859-0.72657-0.16407-2.8477-0.16407z"/>
   <path d="m462.17 214.4 3.2812 0.55078q-0.63281 1.8047-2.0039 2.7539-1.3594 0.9375-3.4102 0.9375-3.2461 0-4.8047-2.1211-1.2305-1.6992-1.2305-4.2891 0-3.0938 1.6172-4.8398 1.6172-1.7578 4.0898-1.7578 2.7774 0 4.3828 1.8398 1.6055 1.8281 1.5352 5.6133h-8.25q0.0352 1.4648 0.79688 2.2852 0.76171 0.80859 1.8984 0.80859 0.77344 0 1.3008-0.42187 0.52735-0.42188 0.79688-1.3594zm0.1875-3.3281q-0.0352-1.4297-0.73828-2.168-0.70313-0.75-1.7109-0.75-1.0781 0-1.7812 0.78516-0.70312 0.78515-0.69141 2.1328z"/>
   <path d="m467.65 214.81 3.3047-0.50391q0.21093 0.96094 0.85546 1.4648 0.64454 0.49218 1.8047 0.49218 1.2774 0 1.9219-0.46875 0.43359-0.32812 0.43359-0.8789 0-0.375-0.23437-0.6211-0.2461-0.23437-1.1016-0.43359-3.9844-0.87891-5.0508-1.6055-1.4766-1.0078-1.4766-2.8008 0-1.6172 1.2773-2.7188 1.2774-1.1016 3.9609-1.1016 2.5547 0 3.7969 0.83203 1.2422 0.83203 1.7109 2.4609l-3.1055 0.57422q-0.19921-0.72657-0.76171-1.1133-0.55079-0.38671-1.582-0.38671-1.3008 0-1.8633 0.36328-0.375 0.25781-0.375 0.66797 0 0.35156 0.32813 0.59765 0.44531 0.32813 3.0703 0.92578 2.6367 0.59766 3.6797 1.4648 1.0312 0.8789 1.0312 2.4492 0 1.7109-1.4297 2.9414t-4.2305 1.2305q-2.543 0-4.0312-1.0312-1.4766-1.0312-1.9336-2.8008z"/>
   <path d="m489.87 214.4 3.2812 0.55078q-0.63281 1.8047-2.0039 2.7539-1.3594 0.9375-3.4102 0.9375-3.2461 0-4.8047-2.1211-1.2305-1.6992-1.2305-4.2891 0-3.0938 1.6172-4.8398 1.6172-1.7578 4.0898-1.7578 2.7774 0 4.3828 1.8398 1.6055 1.8281 1.5352 5.6133h-8.25q0.0352 1.4648 0.79688 2.2852 0.76172 0.80859 1.8984 0.80859 0.77343 0 1.3008-0.42187 0.52734-0.42188 0.79687-1.3594zm0.1875-3.3281q-0.0352-1.4297-0.73828-2.168-0.70312-0.75-1.7109-0.75-1.0781 0-1.7812 0.78516-0.70312 0.78515-0.6914 2.1328z"/>
   <path d="m507.83 218.36h-3.293v-6.3516q0-2.0156-0.21094-2.6016-0.21093-0.59766-0.6914-0.92579-0.46875-0.32812-1.1367-0.32812-0.85547 0-1.5352 0.46875t-0.9375 1.2422q-0.24609 0.77343-0.24609 2.8594v5.6367h-3.293v-12.445h3.0586v1.8281q1.6289-2.1094 4.1016-2.1094 1.0898 0 1.9922 0.39844 0.90235 0.38671 1.3594 0.99609 0.46875 0.60937 0.64453 1.3828 0.1875 0.77344 0.1875 2.2148z"/>
   <path d="m515.09 218.36-5.0156-12.445h3.457l2.3438 6.3516 0.67969 2.1211q0.26953-0.80859 0.33985-1.0664 0.16406-0.52735 0.35156-1.0547l2.3672-6.3516h3.3867l-4.9453 12.445z"/>
   <path d="m524.76 211.96q0-1.6406 0.80859-3.1758 0.8086-1.5352 2.2852-2.3438 1.4883-0.80859 3.3164-0.80859 2.8242 0 4.6289 1.8398 1.8047 1.8281 1.8047 4.6289 0 2.8242-1.8281 4.6875-1.8164 1.8516-4.582 1.8516-1.7109 0-3.2695-0.77344-1.5469-0.77344-2.3555-2.2617-0.80859-1.5-0.80859-3.6445zm3.375 0.17578q0 1.8516 0.87891 2.8359 0.8789 0.98438 2.168 0.98438 1.2891 0 2.1562-0.98438 0.8789-0.98437 0.8789-2.8594 0-1.8281-0.8789-2.8125-0.86719-0.98438-2.1562-0.98438-1.2891 0-2.168 0.98438-0.87891 0.98437-0.87891 2.8359z"/>
   <path d="m540.68 218.36v-17.18h3.293v17.18z"/>
   <path d="m551.27 218.36-5.0156-12.445h3.457l2.3438 6.3516 0.67968 2.1211q0.26953-0.80859 0.33985-1.0664 0.16406-0.52735 0.35156-1.0547l2.3672-6.3516h3.3867l-4.9453 12.445z"/>
   <path d="m568.9 214.4 3.2812 0.55078q-0.63281 1.8047-2.0039 2.7539-1.3594 0.9375-3.4102 0.9375-3.2461 0-4.8047-2.1211-1.2305-1.6992-1.2305-4.2891 0-3.0938 1.6172-4.8398 1.6172-1.7578 4.0898-1.7578 2.7774 0 4.3828 1.8398 1.6055 1.8281 1.5352 5.6133h-8.25q0.0352 1.4648 0.79688 2.2852 0.76172 0.80859 1.8984 0.80859 0.77343 0 1.3008-0.42187 0.52734-0.42188 0.79687-1.3594zm0.1875-3.3281q-0.0352-1.4297-0.73828-2.168-0.70312-0.75-1.7109-0.75-1.0781 0-1.7812 0.78516-0.70312 0.78515-0.6914 2.1328z"/>
   <path d="m586.96 218.36h-3.0586v-1.8281q-0.76172 1.0664-1.8047 1.5938-1.0312 0.51563-2.0859 0.51563-2.1445 0-3.6797-1.7227-1.5234-1.7344-1.5234-4.8281 0-3.1641 1.4883-4.8047 1.4883-1.6523 3.7617-1.6523 2.0859 0 3.6094 1.7344v-6.1875h3.293zm-8.7891-6.4922q0 1.9922 0.55078 2.8828 0.79687 1.2891 2.2266 1.2891 1.1367 0 1.9336-0.96094 0.79688-0.97266 0.79688-2.8945 0-2.1445-0.77344-3.082-0.77344-0.94922-1.9805-0.94922-1.1719 0-1.9688 0.9375-0.78515 0.92578-0.78515 2.7773z"/>
   <path d="m589.94 211.96q0-1.6406 0.8086-3.1758 0.80859-1.5352 2.2852-2.3438 1.4883-0.80859 3.3164-0.80859 2.8242 0 4.6289 1.8398 1.8047 1.8281 1.8047 4.6289 0 2.8242-1.8281 4.6875-1.8164 1.8516-4.582 1.8516-1.7109 0-3.2695-0.77344-1.5469-0.77344-2.3555-2.2617-0.8086-1.5-0.8086-3.6445zm3.375 0.17578q0 1.8516 0.87891 2.8359 0.87891 0.98438 2.168 0.98438t2.1562-0.98438q0.87891-0.98437 0.87891-2.8594 0-1.8281-0.87891-2.8125-0.86719-0.98438-2.1562-0.98438t-2.168 0.98438q-0.87891 0.98437-0.87891 2.8359z"/>
   <path d="m609.01 218.36h-3.293v-12.445h3.0586v1.7695q0.78515-1.2539 1.4062-1.6523 0.63281-0.39844 1.4297-0.39844 1.125 0 2.168 0.62109l-1.0195 2.8711q-0.83203-0.53907-1.5469-0.53907-0.69141 0-1.1719 0.38672-0.48047 0.375-0.76172 1.3711-0.26953 0.99609-0.26953 4.1719z"/>
   <path d="m625.33 218.36-4.1016-17.18h3.5508l2.5898 11.801 3.1406-11.801h4.125l3.0117 12 2.6367-12h3.4922l-4.1719 17.18h-3.6797l-3.4219-12.844-3.4102 12.844z"/>
   <path d="m652.79 214.4 3.2812 0.55078q-0.63281 1.8047-2.0039 2.7539-1.3594 0.9375-3.4102 0.9375-3.2461 0-4.8047-2.1211-1.2305-1.6992-1.2305-4.2891 0-3.0938 1.6172-4.8398 1.6172-1.7578 4.0898-1.7578 2.7773 0 4.3828 1.8398 1.6055 1.8281 1.5352 5.6133h-8.25q0.0352 1.4648 0.79688 2.2852 0.76172 0.80859 1.8984 0.80859 0.77343 0 1.3008-0.42187 0.52734-0.42188 0.79687-1.3594zm0.1875-3.3281q-0.0352-1.4297-0.73828-2.168-0.70312-0.75-1.7109-0.75-1.0781 0-1.7812 0.78516-0.70312 0.78515-0.6914 2.1328z"/>
   <path d="m659.29 218.36v-17.18h3.293v6.1875q1.5234-1.7344 3.6094-1.7344 2.2734 0 3.7617 1.6523 1.4883 1.6406 1.4883 4.7227 0 3.1875-1.5234 4.9102-1.5117 1.7227-3.6797 1.7227-1.0664 0-2.1094-0.52734-1.0312-0.53907-1.7812-1.582v1.8281zm3.2695-6.4922q0 1.9336 0.60938 2.8594 0.85547 1.3125 2.2734 1.3125 1.0898 0 1.8516-0.92578 0.77344-0.9375 0.77344-2.9414 0-2.1328-0.77344-3.0703-0.77344-0.94922-1.9805-0.94922-1.1836 0-1.9688 0.92578-0.78516 0.91406-0.78516 2.7891z"/>
  </g>
  <text x="828.55237" y="-115.10687" letter-spacing=".5px" text-anchor="end" word-spacing="0px" style="paint-order:fill markers stroke" xml:space="preserve"><tspan x="828.55237" y="-115.10687" font-size="64px"><tspan x="828.55237" y="-115.10687" font-family="Arial" font-size="64px" font-weight="bold" text-align="end"><tspan dy="-30" font-family="Arial" font-size="64px" font-weight="bold" text-align="end" text-anchor="end">Johny W. Alves</tspan></tspan></tspan><tspan x="829.05237" y="-115.10687" font-size="24px"><tspan x="828.55237" y="-115.10687" font-family="Arial" font-size="24px" font-weight="bold" text-align="end">Desenvolvedor Web</tspan></tspan></text>
  <g transform="translate(1.3009 -3.4073)" style="paint-order:fill markers stroke" aria-label="Johny W. Alves Desenvolvedor Web">
   <path d="m362.39 29.477h9.2188v29q0 5.6875-1 8.75-1.3438 4-4.875 6.4375-3.5312 2.4062-9.3125 2.4062-6.7812 0-10.438-3.7812-3.6562-3.8125-3.6875-11.156l8.7188-1q0.15625 3.9375 1.1562 5.5625 1.5 2.4688 4.5625 2.4688 3.0938 0 4.375-1.75 1.2812-1.7812 1.2812-7.3438z"/>
   <path d="m379.86 58.227q0-4.375 2.1562-8.4688t6.0938-6.25q3.9688-2.1562 8.8438-2.1562 7.5312 0 12.344 4.9062 4.8125 4.875 4.8125 12.344 0 7.5312-4.875 12.5-4.8438 4.9375-12.219 4.9375-4.5625 0-8.7188-2.0625-4.125-2.0625-6.2812-6.0312-2.1562-4-2.1562-9.7188zm9 0.46875q0 4.9375 2.3438 7.5625t5.7812 2.625 5.75-2.625q2.3438-2.625 2.3438-7.625 0-4.875-2.3438-7.5-2.3125-2.625-5.75-2.625t-5.7812 2.625-2.3438 7.5625z"/>
   <path d="m430.23 29.477v16.844q4.25-4.9688 10.156-4.9688 3.0312 0 5.4688 1.125t3.6562 2.875q1.25 1.75 1.6875 3.875 0.46875 2.125 0.46875 6.5938v19.469h-8.7812v-17.531q0-5.2188-0.5-6.625t-1.7812-2.2188q-1.25-0.84375-3.1562-0.84375-2.1875 0-3.9062 1.0625t-2.5312 3.2188q-0.78125 2.125-0.78125 6.3125v16.625h-8.7812v-45.812z"/>
   <path d="m491.26 75.29h-8.7812v-16.938q0-5.375-0.5625-6.9375-0.5625-1.5938-1.8438-2.4688-1.25-0.875-3.0312-0.875-2.2812 0-4.0938 1.25t-2.5 3.3125q-0.65625 2.0625-0.65625 7.625v15.031h-8.7812v-33.188h8.1562v4.875q4.3438-5.625 10.938-5.625 2.9062 0 5.3125 1.0625 2.4062 1.0312 3.625 2.6562 1.25 1.625 1.7188 3.6875 0.5 2.0625 0.5 5.9062z"/>
   <path d="m496.51 42.102h9.3438l7.9375 23.562 7.75-23.562h9.0938l-11.719 31.938-2.0938 5.7812q-1.1562 2.9062-2.2188 4.4375-1.0312 1.5312-2.4062 2.4688-1.3438 0.96875-3.3438 1.5-1.9688 0.53125-4.4688 0.53125-2.5312 0-4.9688-0.53125l-0.78125-6.875q2.0625 0.40625 3.7188 0.40625 3.0625 0 4.5312-1.8125 1.4688-1.7812 2.25-4.5625z"/>
   <path d="m561.61 75.29-10.938-45.812h9.4688l6.9062 31.469 8.375-31.469h11l8.0312 32 7.0312-32h9.3125l-11.125 45.812h-9.8125l-9.125-34.25-9.0938 34.25z"/>
   <path d="m612.42 75.29v-8.7812h8.7812v8.7812z"/>
   <path d="m687.98 75.29h-10.062l-4-10.406h-18.312l-3.7812 10.406h-9.8125l17.844-45.812h9.7812zm-17.031-18.125-6.3125-17-6.1875 17z"/>
   <path d="m693.33 75.29v-45.812h8.7812v45.812z"/>
   <path d="m720.73 75.29-13.375-33.188h9.2188l6.25 16.938 1.8125 5.6562q0.71875-2.1562 0.90625-2.8438 0.4375-1.4062 0.9375-2.8125l6.3125-16.938h9.0312l-13.188 33.188z"/>
   <path d="m766.92 64.727 8.75 1.4688q-1.6875 4.8125-5.3438 7.3438-3.625 2.5-9.0938 2.5-8.6562 0-12.812-5.6562-3.2812-4.5312-3.2812-11.438 0-8.25 4.3125-12.906 4.3125-4.6875 10.906-4.6875 7.4062 0 11.688 4.9062 4.2812 4.875 4.0938 14.969h-22q0.0937 3.9062 2.125 6.0938 2.0312 2.1562 5.0625 2.1562 2.0625 0 3.4688-1.125t2.125-3.625zm0.5-8.875q-0.0937-3.8125-1.9688-5.7812-1.875-2-4.5625-2-2.875 0-4.75 2.0938t-1.8438 5.6875z"/>
   <path d="m780.7 65.821 8.8125-1.3438q0.5625 2.5625 2.2812 3.9062 1.7188 1.3125 4.8125 1.3125 3.4062 0 5.125-1.25 1.1562-0.875 1.1562-2.3438 0-1-0.625-1.6562-0.65625-0.625-2.9375-1.1562-10.625-2.3438-13.469-4.2812-3.9375-2.6875-3.9375-7.4688 0-4.3125 3.4062-7.25t10.562-2.9375q6.8125 0 10.125 2.2188t4.5625 6.5625l-8.2812 1.5312q-0.53125-1.9375-2.0312-2.9688-1.4688-1.0312-4.2188-1.0312-3.4688 0-4.9688 0.96875-1 0.6875-1 1.7812 0 0.9375 0.875 1.5938 1.1875 0.875 8.1875 2.4688 7.0312 1.5938 9.8125 3.9062 2.75 2.3438 2.75 6.5312 0 4.5625-3.8125 7.8438t-11.281 3.2812q-6.7812 0-10.75-2.75-3.9375-2.75-5.1562-7.4688z"/>
   <path d="m580.07 88.11h6.3398q2.1445 0 3.2695 0.32812 1.5117 0.44531 2.5898 1.582 1.0781 1.1367 1.6406 2.7891 0.5625 1.6406 0.5625 4.0547 0 2.1211-0.52734 3.6563-0.64454 1.875-1.8398 3.0352-0.90234 0.87891-2.4375 1.3711-1.1484 0.36328-3.0703 0.36328h-6.5273zm3.4688 2.9062v11.379h2.5898q1.4531 0 2.0977-0.16406 0.84375-0.21094 1.3945-0.71485 0.5625-0.5039 0.91406-1.6523 0.35156-1.1602 0.35156-3.1523 0-1.9922-0.35156-3.0586t-0.98438-1.6641q-0.63281-0.59766-1.6055-0.80859-0.72657-0.16406-2.8477-0.16406z"/>
   <path d="m605.1 101.33 3.2812 0.55078q-0.63281 1.8047-2.0039 2.7539-1.3594 0.9375-3.4102 0.9375-3.2461 0-4.8047-2.1211-1.2305-1.6992-1.2305-4.2891 0-3.0938 1.6172-4.8398 1.6172-1.7578 4.0898-1.7578 2.7774 0 4.3828 1.8398 1.6055 1.8281 1.5352 5.6133h-8.25q0.0352 1.4648 0.79688 2.2852 0.76171 0.80859 1.8984 0.80859 0.77344 0 1.3008-0.42187 0.52735-0.42188 0.79688-1.3594zm0.1875-3.3281q-0.0352-1.4297-0.73828-2.168-0.70313-0.75-1.7109-0.75-1.0781 0-1.7812 0.78516-0.70312 0.78516-0.69141 2.1328z"/>
   <path d="m610.58 101.74 3.3047-0.50391q0.21093 0.96094 0.85546 1.4648 0.64454 0.49218 1.8047 0.49218 1.2774 0 1.9219-0.46875 0.43359-0.32812 0.43359-0.8789 0-0.375-0.23437-0.6211-0.2461-0.23437-1.1016-0.43359-3.9844-0.87891-5.0508-1.6055-1.4766-1.0078-1.4766-2.8008 0-1.6172 1.2773-2.7188 1.2774-1.1016 3.9609-1.1016 2.5547 0 3.7969 0.83203 1.2422 0.83203 1.7109 2.4609l-3.1055 0.57422q-0.19921-0.72656-0.76171-1.1133-0.55079-0.38672-1.582-0.38672-1.3008 0-1.8633 0.36328-0.375 0.25781-0.375 0.66797 0 0.35156 0.32813 0.59766 0.44531 0.32812 3.0703 0.92578 2.6367 0.59766 3.6797 1.4648 1.0312 0.87891 1.0312 2.4492 0 1.7109-1.4297 2.9414t-4.2305 1.2305q-2.543 0-4.0312-1.0312-1.4766-1.0312-1.9336-2.8008z"/>
   <path d="m632.79 101.33 3.2812 0.55078q-0.63281 1.8047-2.0039 2.7539-1.3594 0.9375-3.4102 0.9375-3.2461 0-4.8047-2.1211-1.2305-1.6992-1.2305-4.2891 0-3.0938 1.6172-4.8398 1.6172-1.7578 4.0898-1.7578 2.7774 0 4.3828 1.8398 1.6055 1.8281 1.5352 5.6133h-8.25q0.0352 1.4648 0.79688 2.2852 0.76172 0.80859 1.8984 0.80859 0.77343 0 1.3008-0.42187 0.52734-0.42188 0.79687-1.3594zm0.1875-3.3281q-0.0352-1.4297-0.73828-2.168-0.70312-0.75-1.7109-0.75-1.0781 0-1.7812 0.78516-0.70312 0.78516-0.6914 2.1328z"/>
   <path d="m650.75 105.29h-3.293v-6.3516q0-2.0156-0.21094-2.6016-0.21093-0.59766-0.6914-0.92578-0.46875-0.32812-1.1367-0.32812-0.85547 0-1.5352 0.46875t-0.9375 1.2422q-0.24609 0.77344-0.24609 2.8594v5.6367h-3.293v-12.445h3.0586v1.8281q1.6289-2.1094 4.1016-2.1094 1.0898 0 1.9922 0.39844 0.90235 0.38672 1.3594 0.99609 0.46875 0.60938 0.64453 1.3828 0.1875 0.77344 0.1875 2.2148z"/>
   <path d="m658.01 105.29-5.0156-12.445h3.457l2.3438 6.3516 0.67969 2.1211q0.26953-0.80859 0.33985-1.0664 0.16406-0.52735 0.35156-1.0547l2.3672-6.3516h3.3867l-4.9453 12.445z"/>
   <path d="m667.68 98.891q0-1.6406 0.80859-3.1758 0.8086-1.5352 2.2852-2.3438 1.4883-0.80859 3.3164-0.80859 2.8242 0 4.6289 1.8398 1.8047 1.8281 1.8047 4.6289 0 2.8242-1.8281 4.6875-1.8164 1.8516-4.582 1.8516-1.7109 0-3.2695-0.77344-1.5469-0.77344-2.3555-2.2617-0.80859-1.5-0.80859-3.6445zm3.375 0.17578q0 1.8516 0.87891 2.8359 0.8789 0.98438 2.168 0.98438 1.2891 0 2.1562-0.98438 0.8789-0.98437 0.8789-2.8594 0-1.8281-0.8789-2.8125-0.86719-0.98438-2.1562-0.98438-1.2891 0-2.168 0.98438-0.87891 0.98438-0.87891 2.8359z"/>
   <path d="m683.6 105.29v-17.18h3.293v17.18z"/>
   <path d="m694.19 105.29-5.0156-12.445h3.457l2.3438 6.3516 0.67968 2.1211q0.26953-0.80859 0.33985-1.0664 0.16406-0.52735 0.35156-1.0547l2.3672-6.3516h3.3867l-4.9453 12.445z"/>
   <path d="m711.82 101.33 3.2812 0.55078q-0.63281 1.8047-2.0039 2.7539-1.3594 0.9375-3.4102 0.9375-3.2461 0-4.8047-2.1211-1.2305-1.6992-1.2305-4.2891 0-3.0938 1.6172-4.8398 1.6172-1.7578 4.0898-1.7578 2.7774 0 4.3828 1.8398 1.6055 1.8281 1.5352 5.6133h-8.25q0.0352 1.4648 0.79688 2.2852 0.76172 0.80859 1.8984 0.80859 0.77343 0 1.3008-0.42187 0.52734-0.42188 0.79687-1.3594zm0.1875-3.3281q-0.0352-1.4297-0.73828-2.168-0.70312-0.75-1.7109-0.75-1.0781 0-1.7812 0.78516-0.70312 0.78516-0.6914 2.1328z"/>
   <path d="m729.88 105.29h-3.0586v-1.8281q-0.76172 1.0664-1.8047 1.5938-1.0312 0.51563-2.0859 0.51563-2.1445 0-3.6797-1.7227-1.5234-1.7344-1.5234-4.8281 0-3.1641 1.4883-4.8047 1.4883-1.6523 3.7617-1.6523 2.0859 0 3.6094 1.7344v-6.1875h3.293zm-8.7891-6.4922q0 1.9922 0.55078 2.8828 0.79687 1.2891 2.2266 1.2891 1.1367 0 1.9336-0.96094 0.79688-0.97266 0.79688-2.8945 0-2.1445-0.77344-3.082-0.77344-0.94922-1.9805-0.94922-1.1719 0-1.9688 0.9375-0.78515 0.92578-0.78515 2.7773z"/>
   <path d="m732.86 98.891q0-1.6406 0.8086-3.1758 0.80859-1.5352 2.2852-2.3438 1.4883-0.80859 3.3164-0.80859 2.8242 0 4.6289 1.8398 1.8047 1.8281 1.8047 4.6289 0 2.8242-1.8281 4.6875-1.8164 1.8516-4.582 1.8516-1.7109 0-3.2695-0.77344-1.5469-0.77344-2.3555-2.2617-0.8086-1.5-0.8086-3.6445zm3.375 0.17578q0 1.8516 0.87891 2.8359 0.87891 0.98438 2.168 0.98438t2.1562-0.98438q0.87891-0.98437 0.87891-2.8594 0-1.8281-0.87891-2.8125-0.86719-0.98438-2.1562-0.98438t-2.168 0.98438-0.87891 2.8359z"/>
   <path d="m751.94 105.29h-3.293v-12.445h3.0586v1.7695q0.78515-1.2539 1.4062-1.6523 0.63281-0.39844 1.4297-0.39844 1.125 0 2.168 0.62109l-1.0195 2.8711q-0.83203-0.53906-1.5469-0.53906-0.69141 0-1.1719 0.38672-0.48047 0.375-0.76172 1.3711-0.26953 0.99609-0.26953 4.1719z"/>
   <path d="m768.25 105.29-4.1016-17.18h3.5508l2.5898 11.801 3.1406-11.801h4.125l3.0117 12 2.6367-12h3.4922l-4.1719 17.18h-3.6797l-3.4219-12.844-3.4102 12.844z"/>
   <path d="m795.72 101.33 3.2812 0.55078q-0.63281 1.8047-2.0039 2.7539-1.3594 0.9375-3.4102 0.9375-3.2461 0-4.8047-2.1211-1.2305-1.6992-1.2305-4.2891 0-3.0938 1.6172-4.8398 1.6172-1.7578 4.0898-1.7578 2.7773 0 4.3828 1.8398 1.6055 1.8281 1.5352 5.6133h-8.25q0.0352 1.4648 0.79688 2.2852 0.76172 0.80859 1.8984 0.80859 0.77343 0 1.3008-0.42187 0.52734-0.42188 0.79687-1.3594zm0.1875-3.3281q-0.0352-1.4297-0.73828-2.168-0.70312-0.75-1.7109-0.75-1.0781 0-1.7812 0.78516-0.70312 0.78516-0.6914 2.1328z"/>
   <path d="m802.22 105.29v-17.18h3.293v6.1875q1.5234-1.7344 3.6094-1.7344 2.2734 0 3.7617 1.6523 1.4883 1.6406 1.4883 4.7227 0 3.1875-1.5234 4.9102-1.5117 1.7227-3.6797 1.7227-1.0664 0-2.1094-0.52734-1.0312-0.53907-1.7812-1.582v1.8281zm3.2695-6.4922q0 1.9336 0.60938 2.8594 0.85547 1.3125 2.2734 1.3125 1.0898 0 1.8516-0.92578 0.77344-0.9375 0.77344-2.9414 0-2.1328-0.77344-3.0703-0.77344-0.94922-1.9805-0.94922-1.1836 0-1.9688 0.92578-0.78516 0.91406-0.78516 2.7891z"/>
  </g>
 </g>
</svg>
