<?xml version="1.0" encoding="UTF-8"?>
<!-- Created with Inkscape (http://www.inkscape.org/) -->
<svg width="1128" height="120" version="1.1" viewBox="0 0 1128 120" xmlns="http://www.w3.org/2000/svg" xmlns:xlink="http://www.w3.org/1999/xlink">
 <defs>
  <linearGradient id="linearGradient1865" x1="-2275.5" x2="-2071.7" y1="584.37" y2="584.37" gradientTransform="translate(2821.5,-436.99)" gradientUnits="userSpaceOnUse">
   <stop stop-color="#e0138c" offset="0"/>
   <stop stop-color="#8857c3" offset=".65"/>
   <stop stop-color="#44b5ef" offset="1"/>
  </linearGradient>
  <filter id="filter8201" x="-.37617" y="-.32688" width="1.7524" height="1.6538" color-interpolation-filters="sRGB">
   <feGaussianBlur stdDeviation="25.100128"/>
  </filter>
  <linearGradient id="linearGradient1403" x1="-2271.7" x2="-2073.6" y1="318.42" y2="318.42" gradientTransform="translate(2821.5,-171.03)" gradientUnits="userSpaceOnUse">
   <stop stop-color="#ec8bc5" offset="0"/>
   <stop stop-color="#ad91d8" offset=".65"/>
   <stop stop-color="#82cdf4" offset="1"/>
  </linearGradient>
  <filter id="filter8197" x="-.12082" y="-.10499" width="1.2416" height="1.21" color-interpolation-filters="sRGB">
   <feGaussianBlur stdDeviation="6.2750313"/>
  </filter>
  <linearGradient id="linearGradient5761" x1="-2267.9" x2="-2075.5" y1="52.474" y2="52.474" gradientTransform="translate(2821.5,94.938)" gradientUnits="userSpaceOnUse">
   <stop stop-color="#f5c5e2" offset="0"/>
   <stop stop-color="#d7c7eb" offset=".65"/>
   <stop stop-color="#c0e6f9" offset="1"/>
  </linearGradient>
  <filter id="filter8193" x="-.04694" y="-.040789" width="1.0939" height="1.0816" color-interpolation-filters="sRGB">
   <feGaussianBlur stdDeviation="1.5687656"/>
  </filter>
  <filter id="filter16588-4" x="-.028533" y="-.033739" width="1.0571" height="1.0675" color-interpolation-filters="sRGB">
   <feGaussianBlur stdDeviation="2.8709522"/>
  </filter>
  <filter id="filter16584-1" x="-.01286" y="-.016739" width="1.0258" height="1.0335" color-interpolation-filters="sRGB">
   <feGaussianBlur stdDeviation="1.27598"/>
  </filter>
  <filter id="filter16580-4" x="-.0036616" y="-.0050961" width="1.0073" height="1.0102" color-interpolation-filters="sRGB">
   <feGaussianBlur stdDeviation="0.31899501"/>
  </filter>
  <linearGradient id="linearGradient16834-6" x1="-18.318" x2="122.88" y1="-23.978" y2="123.93" gradientTransform="matrix(.83363 0 0 .83363 -1204.2 -292.2)" gradientUnits="userSpaceOnUse">
   <stop stop-color="#e0138c" stop-opacity=".9" offset="0"/>
   <stop stop-color="#e0138c" stop-opacity="0" offset="1"/>
  </linearGradient>
  <filter id="filter16588-4-0" x="-.028533" y="-.033739" width="1.0571" height="1.0675" color-interpolation-filters="sRGB">
   <feGaussianBlur stdDeviation="2.8709522"/>
  </filter>
  <filter id="filter16584-1-3" x="-.01286" y="-.016739" width="1.0258" height="1.0335" color-interpolation-filters="sRGB">
   <feGaussianBlur stdDeviation="1.27598"/>
  </filter>
  <filter id="filter16580-4-9" x="-.0036616" y="-.0050961" width="1.0073" height="1.0102" color-interpolation-filters="sRGB">
   <feGaussianBlur stdDeviation="0.31899501"/>
  </filter>
  <linearGradient id="linearGradient3305" x1="-18.318" x2="122.88" y1="-23.978" y2="123.93" gradientTransform="matrix(.57067 0 0 .57067 -1.6858 -1.8521)" gradientUnits="userSpaceOnUse" xlink:href="#linearGradient16834-6"/>
  <linearGradient id="linearGradient5001" x1="-18.318" x2="122.88" y1="-23.978" y2="123.93" gradientTransform="matrix(.55035 0 0 .55035 -1131 -116.08)" gradientUnits="userSpaceOnUse" xlink:href="#linearGradient16834-6"/>
  <filter id="filter8201-3" x="-.37617" y="-.32688" width="1.7524" height="1.6538" color-interpolation-filters="sRGB">
   <feGaussianBlur stdDeviation="25.100128"/>
  </filter>
  <filter id="filter8197-3" x="-.12082" y="-.10499" width="1.2416" height="1.21" color-interpolation-filters="sRGB">
   <feGaussianBlur stdDeviation="6.2750313"/>
  </filter>
  <filter id="filter8193-1" x="-.04694" y="-.040789" width="1.0939" height="1.0816" color-interpolation-filters="sRGB">
   <feGaussianBlur stdDeviation="1.5687656"/>
  </filter>
  <filter id="filter8201-0" x="-.37617" y="-.32688" width="1.7524" height="1.6538" color-interpolation-filters="sRGB">
   <feGaussianBlur stdDeviation="25.100128"/>
  </filter>
  <filter id="filter8197-0" x="-.12082" y="-.10499" width="1.2416" height="1.21" color-interpolation-filters="sRGB">
   <feGaussianBlur stdDeviation="6.2750313"/>
  </filter>
  <filter id="filter8193-5" x="-.04694" y="-.040789" width="1.0939" height="1.0816" color-interpolation-filters="sRGB">
   <feGaussianBlur stdDeviation="1.5687656"/>
  </filter>
  <filter id="filter8201-0-7" x="-.37617" y="-.32688" width="1.7524" height="1.6538" color-interpolation-filters="sRGB">
   <feGaussianBlur stdDeviation="25.100128"/>
  </filter>
  <filter id="filter8197-0-2" x="-.12082" y="-.10499" width="1.2416" height="1.21" color-interpolation-filters="sRGB">
   <feGaussianBlur stdDeviation="6.2750313"/>
  </filter>
  <filter id="filter8193-5-3" x="-.04694" y="-.040789" width="1.0939" height="1.0816" color-interpolation-filters="sRGB">
   <feGaussianBlur stdDeviation="1.5687656"/>
  </filter>
 </defs>
 <g transform="matrix(-.47222 -.57162 -.57162 .47222 743.84 377.63)" fill="none" stroke-linecap="round" stroke-linejoin="round">
  <path d="m744.1 254.87-186.72-106.36h1e-3v-1e-3l185.48-108.52v1e-3z" filter="url(#filter8201)" stroke="url(#linearGradient1865)" stroke-width="20"/>
  <path d="m744.1 254.87-186.72-106.36 1e-3 -1e-3c0.24-0.141 185.24-108.38 185.48-108.52h1e-3v1e-3c1e-3 0.21 1.24 214.88 1.24 214.88" filter="url(#filter8197)" stroke="url(#linearGradient1403)" stroke-width="15px"/>
  <path d="m744.1 254.87-186.72-106.36 1e-3 -1e-3c0.481-0.281 185.36-108.45 185.48-108.52l1e-3 1e-3v2e-3c2e-3 0.418 1.24 214.88 1.24 214.88" filter="url(#filter8193)" stroke="url(#linearGradient5761)" stroke-width="10"/>
  <path d="m744.09 254.87-186.72-106.37 185.48-108.51v0.0017z" stroke="#fff" stroke-width="5"/>
 </g>
 <g transform="matrix(.15372 .39283 .39283 -.15372 733.2 -147.19)" fill="none" stroke-linecap="round" stroke-linejoin="round">
  <path d="m744.1 254.87-186.72-106.36h1e-3v-1e-3l185.48-108.52v1e-3z" filter="url(#filter8201-3)" stroke="url(#linearGradient1865)" stroke-width="20"/>
  <path d="m744.1 254.87-186.72-106.36 1e-3 -1e-3c0.24-0.141 185.24-108.38 185.48-108.52h1e-3v1e-3c1e-3 0.21 1.24 214.88 1.24 214.88" filter="url(#filter8197-3)" stroke="url(#linearGradient1403)" stroke-width="15px"/>
  <path d="m744.1 254.87-186.72-106.36 1e-3 -1e-3c0.481-0.281 185.36-108.45 185.48-108.52l1e-3 1e-3v2e-3c2e-3 0.418 1.24 214.88 1.24 214.88" filter="url(#filter8193-1)" stroke="url(#linearGradient5761)" stroke-width="10"/>
  <path d="m744.09 254.87-186.72-106.37 185.48-108.51v0.0017z" stroke="#fff" stroke-width="5"/>
 </g>
 <rect transform="rotate(180.42)" x="-1131" y="-116.08" width="137.59" height="137.59" fill="url(#linearGradient5001)" fill-rule="evenodd" stroke-width=".55035" style="paint-order:stroke markers fill"/>
 <g transform="matrix(-.53454 .056513 -.055896 -.52868 1401.4 396.8)" fill="none" opacity=".9">
  <g transform="translate(-60.315,568.73)" filter="url(#filter16588-4)">
   <g stroke-linecap="round" stroke-linejoin="round" stroke-width="2">
    <path d="m526.11 123.57 72.44-42.081" stroke="#44b5ef"/>
    <path d="m631.94 124 62.72-36.648" stroke="#44b5ef"/>
    <g stroke="#e0138c">
     <path d="m725.57 68.668 30.9-18.012"/>
     <path d="m631.69 97.527c1.4776-0.45357 131.8-77.176 131.8-77.176"/>
     <path d="m668.4 66.503 79.535-46.583"/>
    </g>
    <path d="m646.96 69.1 29.248-16.556" stroke="#8857c3"/>
    <path d="m615.67 48.139 12.907-8.1065" stroke="#44b5ef"/>
    <path d="m642.38 31.44 38.52-23.641" stroke="#8857c3"/>
    <path d="m487.46 241.66 49.556-28.969" stroke="#44b5ef"/>
    <path d="m503.38 187.31 25.98-14.577" stroke="#e0138c"/>
    <path d="m487.21 156.79 62.754-36.271" stroke="#fff"/>
    <path d="m488.78 39.609 48.257-27.564" stroke="#8857c3"/>
    <path d="m486.96 85.264 72.51-41.179" stroke="#e0138c"/>
    <path d="m553.79 34.412 26.08-14.492" stroke="#44b5ef"/>
    <path d="m543.85 64.675 44.401-25.066" stroke="#8857c3"/>
    <path d="m507.79 85.699 21.814-13.061" stroke="#fff"/>
    <path d="m488.53 133.32 26.026-14.614" stroke="#8857c3"/>
    <path d="m592.52 187.74 14.208-7.7243" stroke="#e0138c"/>
    <path d="m611.49 161.84 29.65-17.876" stroke="#e0138c"/>
    <path d="m487.21 225.34 121.18-69.354" stroke="#fff"/>
    <path d="m487.86 178.67 81.154-46.896" stroke="#e0138c"/>
    <path d="m641.4 152.91 76.113-42.706" stroke="#8857c3"/>
   </g>
   <g stroke="#44b5ef" stroke-width="2px">
    <path d="m487.46 241.66 49.556-28.969"/>
    <path d="m487.46 241.66 49.556-28.969"/>
    <path d="m487.46 241.66 49.556-28.969"/>
    <path d="m487.46 241.66 49.556-28.969"/>
   </g>
  </g>
  <g transform="translate(-60.315,303.29)" filter="url(#filter16584-1)" stroke-width="2px" style="mix-blend-mode:normal">
   <path d="m487.46 507.1 49.556-28.969" stroke="#82cdf4"/>
   <path d="m487.2 490.77 121.18-69.354" stroke="#fff"/>
   <path d="m592.52 453.18 14.208-7.724" stroke="#ec8bc5"/>
   <path d="m641.4 418.34 76.113-42.706" stroke="#af8fd7"/>
   <g stroke="#ec8bc5">
    <path d="m725.57 334.11 30.899-18.012"/>
    <path d="m668.4 331.94 79.535-46.583"/>
    <path d="m631.68 362.96c1.478-0.453 131.8-77.176 131.8-77.176"/>
   </g>
   <path d="m631.94 389.44 62.72-36.648" stroke="#82cdf4"/>
   <g stroke="#ec8bc5">
    <path d="m592.52 453.18 14.208-7.724"/>
    <path d="m611.49 427.28 29.649-17.876"/>
    <path d="m503.38 452.74 25.98-14.577"/>
    <path d="m487.86 444.11 81.154-46.896"/>
   </g>
   <path d="m487.2 422.23 62.754-36.271" stroke="#fff"/>
   <path d="m526.11 389.01 72.441-42.081" stroke="#82cdf4"/>
   <path d="m488.53 398.75 26.025-14.614" stroke="#af8fd7"/>
   <path d="m488.78 305.05 48.257-27.565" stroke="#af8fd7"/>
   <path d="m553.79 299.85 26.079-14.492" stroke="#82cdf4"/>
   <path d="m615.67 313.58 12.907-8.107" stroke="#82cdf4"/>
   <path d="m642.38 296.88 38.52-23.641" stroke="#af8fd7"/>
   <path d="m543.85 330.11 44.401-25.066" stroke="#af8fd7"/>
   <path d="m486.96 350.7 72.511-41.179" stroke="#ec8bc5"/>
   <path d="m486.96 350.7 72.511-41.179" stroke="#ec8bc5"/>
   <path d="m507.79 351.14 21.814-13.061" stroke="#fff"/>
   <path d="m488.53 398.75 26.025-14.614" stroke="#af8fd7"/>
   <path d="m646.96 334.54 29.248-16.556" stroke="#af8fd7"/>
  </g>
  <g transform="translate(-60.315,37.85)" filter="url(#filter16580-4)">
   <path d="m487.46 772.53 49.556-28.969" stroke="#c0e6f9"/>
   <path d="m487.2 756.21 121.18-69.354" stroke="#fff"/>
   <path d="m592.52 718.62 14.208-7.724" stroke="#f5c5e2"/>
   <path d="m641.4 683.78 76.113-42.706" stroke="#d7c7eb"/>
   <g stroke="#f5c5e2">
    <path d="m725.57 599.54 30.899-18.012"/>
    <path d="m668.4 597.38 79.535-46.583"/>
    <path d="m631.68 628.4c1.478-0.453 131.8-77.176 131.8-77.176"/>
   </g>
   <path d="m631.94 654.88 62.72-36.648" stroke="#c0e6f9"/>
   <g stroke="#f5c5e2">
    <path d="m592.52 718.62 14.208-7.724"/>
    <path d="m611.49 692.72 29.649-17.876"/>
    <path d="m503.38 718.18 25.98-14.577"/>
    <path d="m487.86 709.55 81.154-46.896"/>
   </g>
   <path d="m487.2 687.67 62.754-36.271" stroke="#fff"/>
   <path d="m526.11 654.44 72.441-42.081" stroke="#c0e6f9"/>
   <path d="m488.53 664.19 26.025-14.614" stroke="#d7c7eb"/>
   <path d="m488.78 570.48 48.257-27.565" stroke="#d7c7eb"/>
   <path d="m553.79 565.29 26.079-14.492" stroke="#c0e6f9"/>
   <path d="m615.67 579.02 12.907-8.107" stroke="#c0e6f9"/>
   <path d="m642.38 562.32 38.52-23.641" stroke="#d7c7eb"/>
   <path d="m543.85 595.55 44.401-25.066" stroke="#d7c7eb"/>
   <path d="m486.96 616.14 72.511-41.179" stroke="#f5c5e2"/>
   <path d="m486.96 616.14 72.511-41.179" stroke="#f5c5e2"/>
   <path d="m507.79 616.58 21.814-13.061" stroke="#fff"/>
   <path d="m488.53 664.19 26.025-14.614" stroke="#d7c7eb"/>
   <path d="m646.96 599.98 29.248-16.556" stroke="#d7c7eb"/>
  </g>
  <g transform="translate(-60.316,-227.59)" stroke="#fff" stroke-linecap="round" stroke-linejoin="round">
   <path d="m526.11 919.88 72.44-42.081"/>
   <path d="m631.94 920.31 62.72-36.648"/>
   <path d="m725.57 864.98 30.9-18.012"/>
   <path d="m631.69 893.84c1.4776-0.45357 131.8-77.176 131.8-77.176"/>
   <path d="m668.4 862.82 79.535-46.583"/>
   <path d="m642.38 827.75 38.52-23.641"/>
   <path d="m646.96 865.41 29.248-16.556"/>
   <path d="m615.67 844.45 12.907-8.1065"/>
   <path d="m487.46 1038 49.556-28.969"/>
   <path d="m503.38 983.62 25.98-14.577"/>
   <path d="m487.21 953.11 62.754-36.271"/>
   <path d="m488.78 835.92 48.257-27.564"/>
   <path d="m486.96 881.58 72.51-41.178"/>
   <path d="m553.79 830.73 26.08-14.492"/>
   <path d="m543.85 860.99 44.401-25.066"/>
   <path d="m507.79 882.01 21.814-13.061"/>
   <path d="m488.53 929.63 26.026-14.614"/>
   <path d="m592.52 984.06 14.208-7.7243"/>
   <path d="m611.49 958.16 29.65-17.876"/>
   <path d="m487.21 1021.6 121.18-69.354"/>
   <path d="m487.86 974.99 81.154-46.896"/>
   <path d="m641.4 949.22 76.113-42.706"/>
  </g>
 </g>
 <rect transform="rotate(-.50992)" x="-1.6858" y="-1.8521" width="142.67" height="142.67" fill="url(#linearGradient3305)" fill-rule="evenodd" stroke-width=".57067" style="paint-order:stroke markers fill"/>
 <g fill="none">
  <g transform="matrix(.55325 -.067632 .066893 .54718 -287.58 -279.61)" opacity=".9">
   <g transform="translate(-60.315,568.73)" filter="url(#filter16588-4-0)">
    <g stroke-linecap="round" stroke-linejoin="round" stroke-width="2">
     <path d="m526.11 123.57 72.44-42.081" stroke="#44b5ef"/>
     <path d="m631.94 124 62.72-36.648" stroke="#44b5ef"/>
     <g stroke="#e0138c">
      <path d="m725.57 68.668 30.9-18.012"/>
      <path d="m631.69 97.527c1.4776-0.45357 131.8-77.176 131.8-77.176"/>
      <path d="m668.4 66.503 79.535-46.583"/>
     </g>
     <path d="m646.96 69.1 29.248-16.556" stroke="#8857c3"/>
     <path d="m615.67 48.139 12.907-8.1065" stroke="#44b5ef"/>
     <path d="m642.38 31.44 38.52-23.641" stroke="#8857c3"/>
     <path d="m487.46 241.66 49.556-28.969" stroke="#44b5ef"/>
     <path d="m503.38 187.31 25.98-14.577" stroke="#e0138c"/>
     <path d="m487.21 156.79 62.754-36.271" stroke="#fff"/>
     <path d="m488.78 39.609 48.257-27.564" stroke="#8857c3"/>
     <path d="m486.96 85.264 72.51-41.179" stroke="#e0138c"/>
     <path d="m553.79 34.412 26.08-14.492" stroke="#44b5ef"/>
     <path d="m543.85 64.675 44.401-25.066" stroke="#8857c3"/>
     <path d="m507.79 85.699 21.814-13.061" stroke="#fff"/>
     <path d="m488.53 133.32 26.026-14.614" stroke="#8857c3"/>
     <path d="m592.52 187.74 14.208-7.7243" stroke="#e0138c"/>
     <path d="m611.49 161.84 29.65-17.876" stroke="#e0138c"/>
     <path d="m487.21 225.34 121.18-69.354" stroke="#fff"/>
     <path d="m487.86 178.67 81.154-46.896" stroke="#e0138c"/>
     <path d="m641.4 152.91 76.113-42.706" stroke="#8857c3"/>
    </g>
    <g stroke="#44b5ef" stroke-width="2px">
     <path d="m487.46 241.66 49.556-28.969"/>
     <path d="m487.46 241.66 49.556-28.969"/>
     <path d="m487.46 241.66 49.556-28.969"/>
     <path d="m487.46 241.66 49.556-28.969"/>
    </g>
   </g>
   <g transform="translate(-60.315,303.29)" filter="url(#filter16584-1-3)" stroke-width="2px" style="mix-blend-mode:normal">
    <path d="m487.46 507.1 49.556-28.969" stroke="#82cdf4"/>
    <path d="m487.2 490.77 121.18-69.354" stroke="#fff"/>
    <path d="m592.52 453.18 14.208-7.724" stroke="#ec8bc5"/>
    <path d="m641.4 418.34 76.113-42.706" stroke="#af8fd7"/>
    <g stroke="#ec8bc5">
     <path d="m725.57 334.11 30.899-18.012"/>
     <path d="m668.4 331.94 79.535-46.583"/>
     <path d="m631.68 362.96c1.478-0.453 131.8-77.176 131.8-77.176"/>
    </g>
    <path d="m631.94 389.44 62.72-36.648" stroke="#82cdf4"/>
    <g stroke="#ec8bc5">
     <path d="m592.52 453.18 14.208-7.724"/>
     <path d="m611.49 427.28 29.649-17.876"/>
     <path d="m503.38 452.74 25.98-14.577"/>
     <path d="m487.86 444.11 81.154-46.896"/>
    </g>
    <path d="m487.2 422.23 62.754-36.271" stroke="#fff"/>
    <path d="m526.11 389.01 72.441-42.081" stroke="#82cdf4"/>
    <path d="m488.53 398.75 26.025-14.614" stroke="#af8fd7"/>
    <path d="m488.78 305.05 48.257-27.565" stroke="#af8fd7"/>
    <path d="m553.79 299.85 26.079-14.492" stroke="#82cdf4"/>
    <path d="m615.67 313.58 12.907-8.107" stroke="#82cdf4"/>
    <path d="m642.38 296.88 38.52-23.641" stroke="#af8fd7"/>
    <path d="m543.85 330.11 44.401-25.066" stroke="#af8fd7"/>
    <path d="m486.96 350.7 72.511-41.179" stroke="#ec8bc5"/>
    <path d="m486.96 350.7 72.511-41.179" stroke="#ec8bc5"/>
    <path d="m507.79 351.14 21.814-13.061" stroke="#fff"/>
    <path d="m488.53 398.75 26.025-14.614" stroke="#af8fd7"/>
    <path d="m646.96 334.54 29.248-16.556" stroke="#af8fd7"/>
   </g>
   <g transform="translate(-60.315,37.85)" filter="url(#filter16580-4-9)">
    <path d="m487.46 772.53 49.556-28.969" stroke="#c0e6f9"/>
    <path d="m487.2 756.21 121.18-69.354" stroke="#fff"/>
    <path d="m592.52 718.62 14.208-7.724" stroke="#f5c5e2"/>
    <path d="m641.4 683.78 76.113-42.706" stroke="#d7c7eb"/>
    <g stroke="#f5c5e2">
     <path d="m725.57 599.54 30.899-18.012"/>
     <path d="m668.4 597.38 79.535-46.583"/>
     <path d="m631.68 628.4c1.478-0.453 131.8-77.176 131.8-77.176"/>
    </g>
    <path d="m631.94 654.88 62.72-36.648" stroke="#c0e6f9"/>
    <g stroke="#f5c5e2">
     <path d="m592.52 718.62 14.208-7.724"/>
     <path d="m611.49 692.72 29.649-17.876"/>
     <path d="m503.38 718.18 25.98-14.577"/>
     <path d="m487.86 709.55 81.154-46.896"/>
    </g>
    <path d="m487.2 687.67 62.754-36.271" stroke="#fff"/>
    <path d="m526.11 654.44 72.441-42.081" stroke="#c0e6f9"/>
    <path d="m488.53 664.19 26.025-14.614" stroke="#d7c7eb"/>
    <path d="m488.78 570.48 48.257-27.565" stroke="#d7c7eb"/>
    <path d="m553.79 565.29 26.079-14.492" stroke="#c0e6f9"/>
    <path d="m615.67 579.02 12.907-8.107" stroke="#c0e6f9"/>
    <path d="m642.38 562.32 38.52-23.641" stroke="#d7c7eb"/>
    <path d="m543.85 595.55 44.401-25.066" stroke="#d7c7eb"/>
    <path d="m486.96 616.14 72.511-41.179" stroke="#f5c5e2"/>
    <path d="m486.96 616.14 72.511-41.179" stroke="#f5c5e2"/>
    <path d="m507.79 616.58 21.814-13.061" stroke="#fff"/>
    <path d="m488.53 664.19 26.025-14.614" stroke="#d7c7eb"/>
    <path d="m646.96 599.98 29.248-16.556" stroke="#d7c7eb"/>
   </g>
   <g transform="translate(-60.316,-227.59)" stroke="#fff" stroke-linecap="round" stroke-linejoin="round">
    <path d="m526.11 919.88 72.44-42.081"/>
    <path d="m631.94 920.31 62.72-36.648"/>
    <path d="m725.57 864.98 30.9-18.012"/>
    <path d="m631.69 893.84c1.4776-0.45357 131.8-77.176 131.8-77.176"/>
    <path d="m668.4 862.82 79.535-46.583"/>
    <path d="m642.38 827.75 38.52-23.641"/>
    <path d="m646.96 865.41 29.248-16.556"/>
    <path d="m615.67 844.45 12.907-8.1065"/>
    <path d="m487.46 1038 49.556-28.969"/>
    <path d="m503.38 983.62 25.98-14.577"/>
    <path d="m487.21 953.11 62.754-36.271"/>
    <path d="m488.78 835.92 48.257-27.564"/>
    <path d="m486.96 881.58 72.51-41.178"/>
    <path d="m553.79 830.73 26.08-14.492"/>
    <path d="m543.85 860.99 44.401-25.066"/>
    <path d="m507.79 882.01 21.814-13.061"/>
    <path d="m488.53 929.63 26.026-14.614"/>
    <path d="m592.52 984.06 14.208-7.7243"/>
    <path d="m611.49 958.16 29.65-17.876"/>
    <path d="m487.21 1021.6 121.18-69.354"/>
    <path d="m487.86 974.99 81.154-46.896"/>
    <path d="m641.4 949.22 76.113-42.706"/>
   </g>
  </g>
  <g transform="matrix(-.45831 .023048 .023048 .45831 470.85 24.983)" stroke-linecap="round" stroke-linejoin="round">
   <path d="m744.1 254.87-186.72-106.36h1e-3v-1e-3l185.48-108.52v1e-3z" filter="url(#filter8201-0)" stroke="url(#linearGradient1865)" stroke-width="20"/>
   <path d="m744.1 254.87-186.72-106.36 1e-3 -1e-3c0.24-0.141 185.24-108.38 185.48-108.52h1e-3v1e-3c1e-3 0.21 1.24 214.88 1.24 214.88" filter="url(#filter8197-0)" stroke="url(#linearGradient1403)" stroke-width="15px"/>
   <path d="m744.1 254.87-186.72-106.36 1e-3 -1e-3c0.481-0.281 185.36-108.45 185.48-108.52l1e-3 1e-3v2e-3c2e-3 0.418 1.24 214.88 1.24 214.88" filter="url(#filter8193-5)" stroke="url(#linearGradient5761)" stroke-width="10"/>
   <path d="m744.09 254.87-186.72-106.37 185.48-108.51v0.0017z" stroke="#fff" stroke-width="5"/>
  </g>
  <g transform="matrix(.059205 -.22996 -.22996 -.059205 968.65 185.32)" stroke-linecap="round" stroke-linejoin="round">
   <path d="m744.1 254.87-186.72-106.36h1e-3v-1e-3l185.48-108.52v1e-3z" filter="url(#filter8201-0-7)" stroke="url(#linearGradient1865)" stroke-width="20"/>
   <path d="m744.1 254.87-186.72-106.36 1e-3 -1e-3c0.24-0.141 185.24-108.38 185.48-108.52h1e-3v1e-3c1e-3 0.21 1.24 214.88 1.24 214.88" filter="url(#filter8197-0-2)" stroke="url(#linearGradient1403)" stroke-width="15px"/>
   <path d="m744.1 254.87-186.72-106.36 1e-3 -1e-3c0.481-0.281 185.36-108.45 185.48-108.52l1e-3 1e-3v2e-3c2e-3 0.418 1.24 214.88 1.24 214.88" filter="url(#filter8193-5-3)" stroke="url(#linearGradient5761)" stroke-width="10"/>
   <path d="m744.09 254.87-186.72-106.37 185.48-108.51v0.0017z" stroke="#fff" stroke-width="5"/>
  </g>
 </g>
 <g fill="#e0138c" font-family="Calibri" stroke-linecap="round" stroke-linejoin="round" stroke-width="3">
  <text x="454.79749" y="312.1347" font-size="74.667px" style="paint-order:fill markers stroke" xml:space="preserve"><tspan x="454.79749" y="312.1347"/></text>
  <text x="348.51849" y="402.13672" font-size="29.333px" style="paint-order:fill markers stroke" xml:space="preserve"><tspan x="348.51849" y="402.13672"/></text>
  <text x="471.07446" y="41.171143" font-size="160px" stroke="#ffffff" style="paint-order:fill markers stroke" xml:space="preserve"><tspan/></text>
  <text x="792.68103" y="39.256195" letter-spacing=".5px" text-anchor="end" word-spacing="0px" style="paint-order:fill markers stroke" xml:space="preserve"><tspan x="792.68103" y="39.256195" font-size="74.667px" text-align="end"><tspan dy="40" font-family="Calibri" font-size="74.667px" font-weight="bold" text-align="end" text-anchor="end">Johny W. Alves</tspan></tspan><tspan x="793.18103" y="104.58957" font-family="Calibri" font-size="21.333px" font-weight="bold" text-align="end">Desenvolvedor Web</tspan></text>
 </g>
</svg>
